<?xml version="1.0" standalone="no"?>
<!DOCTYPE svg PUBLIC "-//W3C//DTD SVG 20010904//EN"
 "http://www.w3.org/TR/2001/REC-SVG-20010904/DTD/svg10.dtd">
<svg version="1.0" xmlns="http://www.w3.org/2000/svg"
 width="310.000000pt" height="310.000000pt" viewBox="0 0 310.000000 310.000000"
 preserveAspectRatio="xMidYMid meet">
<metadata>
Created by potrace 1.14, written by Peter Selinger 2001-2017
</metadata>
<g transform="translate(0.000000,310.000000) scale(0.100000,-0.100000)"
fill="#000000" stroke="none">
<path d="M885 2919 c-4 -6 -13 -8 -21 -5 -8 3 -14 1 -14 -3 0 -5 -12 -8 -26
-6 -15 1 -28 -3 -31 -12 -4 -10 -9 -11 -18 -3 -9 8 -14 6 -19 -6 -4 -9 -9 -14
-13 -11 -3 4 -15 1 -27 -5 -11 -7 -27 -13 -35 -14 -8 -2 -18 -9 -22 -16 -7
-10 -9 -10 -9 2 -1 12 -3 12 -14 -2 -7 -10 -18 -18 -25 -18 -6 0 -11 -5 -11
-11 0 -5 -4 -8 -8 -5 -8 5 -46 -21 -84 -56 -10 -10 -18 -15 -18 -12 0 9 -109
-105 -133 -139 -11 -14 -18 -29 -17 -32 1 -4 -8 -15 -20 -25 -12 -10 -21 -20
-21 -22 2 -15 -13 -47 -20 -42 -5 3 -8 2 -7 -3 1 -4 -3 -21 -8 -38 -6 -16 -12
-33 -12 -38 -1 -4 -9 -21 -17 -37 -9 -17 -13 -30 -9 -30 4 0 0 -8 -7 -17 -12
-15 -12 -16 1 -8 13 8 13 6 2 -8 -8 -9 -11 -21 -7 -27 3 -5 3 -10 -2 -10 -4 0
-8 -19 -8 -42 0 -24 -2 -47 -4 -53 -10 -20 -7 -120 3 -127 7 -5 7 -8 1 -8 -12
0 -13 -99 -1 -119 6 -9 5 -12 -2 -7 -12 7 -11 -42 2 -63 6 -10 5 -12 -2 -7 -7
4 -12 1 -12 -8 0 -9 6 -16 13 -16 7 0 8 -3 2 -8 -13 -9 -13 -111 -1 -131 6
-10 5 -12 -2 -7 -7 4 -12 1 -12 -8 0 -9 6 -16 13 -16 7 0 8 -3 2 -8 -14 -10
-14 -65 -1 -74 8 -5 7 -8 -1 -8 -11 0 -11 -7 -3 -45 1 -5 2 -12 0 -15 -8 -22
-6 -80 4 -80 7 0 8 -3 1 -8 -12 -8 -13 -41 -3 -58 4 -6 5 -14 1 -18 -12 -11
-11 -76 1 -76 7 0 7 -3 1 -8 -14 -10 -16 -82 -1 -82 7 0 7 -3 1 -8 -14 -10
-14 -65 -1 -74 7 -5 7 -8 1 -8 -12 0 -13 -99 -1 -119 6 -9 5 -12 -2 -7 -12 7
-11 -42 2 -63 6 -10 5 -12 -2 -7 -7 4 -12 1 -12 -8 0 -9 6 -16 13 -16 7 0 8
-3 2 -8 -13 -9 -13 -111 -1 -131 6 -10 5 -12 -2 -7 -7 4 -12 1 -12 -8 0 -9 6
-16 13 -16 7 0 8 -3 2 -8 -14 -10 -14 -65 -1 -74 8 -5 7 -8 -1 -8 -11 0 -11
-7 -3 -45 1 -5 2 -12 0 -15 -8 -22 -6 -80 4 -80 7 0 8 -3 1 -8 -12 -8 -13 -41
-3 -58 4 -6 4 -14 1 -18 -11 -11 -11 -71 1 -78 7 -5 7 -8 1 -8 -16 0 -12 -97
4 -112 8 -7 11 -8 8 -2 -6 11 108 12 120 1 3 -4 13 -2 23 3 10 5 20 6 24 3 10
-10 37 -13 31 -3 -2 4 6 8 20 8 14 0 22 -4 20 -9 -3 -4 9 -4 27 2 40 11 40 11
34 1 -3 -5 1 -9 9 -9 8 0 12 4 9 9 -6 10 25 6 44 -5 6 -5 12 -4 12 2 0 11 19
9 39 -3 10 -6 12 -5 7 2 -9 16 7 15 22 0 9 -9 12 -9 12 2 0 10 3 11 11 3 13
-13 39 -6 56 16 7 11 8 18 1 22 -7 4 -6 14 2 29 10 18 10 21 -2 14 -10 -6 -11
-5 -1 8 7 8 10 18 6 21 -11 11 -10 57 2 57 5 0 3 5 -5 10 -13 9 -13 10 0 10
12 0 12 2 2 9 -15 9 -15 20 0 38 7 8 7 13 1 13 -11 0 -9 42 2 59 3 6 2 11 -2
11 -10 0 -8 94 1 109 4 5 1 11 -5 13 -9 3 -9 10 1 27 10 19 10 22 -2 15 -11
-6 -11 -5 0 8 7 9 9 19 4 22 -9 6 -7 60 3 76 3 5 0 10 -6 12 -9 3 -9 10 1 27
10 19 10 22 -2 15 -11 -6 -11 -5 0 8 7 9 9 19 4 22 -9 6 -7 60 3 76 3 5 0 10
-6 12 -9 3 -9 10 1 27 10 19 10 22 -2 15 -11 -6 -11 -5 0 8 7 9 9 19 4 22 -9
6 -7 60 3 76 3 5 0 10 -6 12 -9 3 -9 10 1 27 10 19 10 22 -2 15 -10 -6 -11 -5
-1 8 7 8 10 18 6 22 -11 11 -9 50 2 58 6 5 4 8 -5 8 -13 0 -13 1 0 10 8 5 10
10 4 10 -11 0 -10 52 1 70 3 5 0 10 -6 12 -9 3 -9 10 1 27 10 19 10 22 -2 15
-10 -6 -11 -5 -1 8 7 8 10 18 6 21 -11 11 -10 57 2 57 5 0 3 5 -5 10 -13 9
-13 10 0 10 9 0 11 3 5 8 -12 8 -13 22 -2 40 5 6 4 12 -1 12 -10 0 -8 42 3 59
3 6 2 11 -2 11 -12 0 -10 83 2 92 6 5 4 8 -5 8 -13 0 -13 1 0 10 8 5 10 10 4
10 -11 0 -10 52 1 70 3 5 0 10 -6 12 -9 3 -9 10 1 27 10 19 10 22 -2 15 -10
-6 -11 -5 -1 8 7 8 10 18 6 22 -11 11 -9 50 2 58 6 5 4 8 -5 8 -13 0 -13 1 0
10 11 7 11 10 2 10 -9 0 -10 5 -2 19 7 14 7 20 -2 23 -8 3 -8 9 1 25 8 15 8
24 1 28 -8 5 -7 11 1 21 8 10 8 14 0 14 -7 0 -8 8 -1 24 5 13 6 26 3 30 -3 3
-2 13 2 23 5 10 9 20 9 23 1 3 5 11 9 18 5 6 5 12 2 12 -14 0 81 100 110 116
11 6 28 10 37 8 10 -1 15 3 12 10 -3 8 3 12 18 11 13 -1 29 2 36 8 8 6 12 6
12 -3 0 -10 3 -10 15 0 8 7 15 8 15 3 0 -5 10 -9 23 -8 31 3 108 -25 101 -36
-3 -5 -2 -9 3 -8 20 3 43 -2 41 -9 -2 -4 9 -20 24 -34 15 -14 25 -28 21 -31
-3 -4 -1 -7 6 -7 7 0 10 -4 7 -9 -4 -5 -1 -11 6 -13 11 -4 16 -24 20 -75 1
-13 7 -23 13 -23 6 0 7 -3 0 -8 -13 -9 -15 -42 -3 -42 6 0 5 -6 -2 -15 -10
-12 -10 -15 0 -15 10 0 10 -3 0 -15 -10 -12 -10 -15 0 -15 10 0 10 -3 0 -15
-10 -12 -10 -15 0 -15 10 0 10 -3 0 -15 -10 -12 -10 -15 0 -15 10 0 10 -3 0
-15 -10 -12 -10 -15 0 -15 10 0 10 -3 0 -15 -10 -12 -10 -15 0 -15 10 0 10 -3
0 -15 -10 -12 -10 -15 0 -15 10 0 10 -3 0 -15 -10 -12 -10 -15 0 -15 10 0 10
-3 0 -15 -10 -12 -10 -15 0 -15 9 0 10 -3 1 -13 -8 -10 -7 -17 1 -25 9 -9 9
-12 -1 -12 -11 0 -11 -3 -1 -15 10 -12 10 -15 0 -15 -10 0 -10 -3 0 -15 9 -11
9 -15 1 -15 -8 0 -9 -5 -2 -19 6 -10 7 -21 4 -25 -10 -10 -10 -1008 -1 -1028
6 -12 5 -18 -3 -18 -8 0 -8 -4 1 -15 10 -12 10 -15 -1 -15 -10 0 -10 -3 -2
-11 7 -7 8 -21 5 -33 -4 -11 -7 -94 -6 -183 3 -199 1 -186 17 -180 6 2 20 0
31 -5 12 -7 16 -7 12 0 -6 11 98 7 117 -5 6 -3 7 -1 3 5 -8 13 20 12 42 -1 6
-5 12 -5 12 0 0 4 11 9 25 9 14 1 23 -1 20 -5 -2 -4 2 -8 10 -8 8 0 12 4 9 8
-2 4 5 7 16 6 11 -1 20 -6 20 -12 0 -6 3 -7 8 0 9 13 65 14 74 0 5 -6 8 -7 8
0 0 6 23 10 55 9 30 -1 55 2 55 7 0 6 4 8 8 5 10 -6 9 115 -1 131 -4 6 -3 13
0 17 10 10 12 76 2 82 -5 3 -4 14 1 25 8 14 7 19 -2 19 -8 0 -9 3 -3 8 12 8
13 71 2 89 -4 6 -4 14 0 16 10 6 9 208 0 224 -3 5 -3 13 0 17 10 10 12 76 2
82 -5 3 -4 14 1 25 8 14 7 19 -2 19 -8 0 -9 3 -3 8 12 8 13 71 2 89 -4 6 -4
14 0 16 10 6 9 208 0 224 -3 5 -3 13 0 17 10 10 12 76 2 82 -5 3 -4 14 1 25 8
14 7 19 -2 19 -8 0 -9 3 -3 8 12 8 13 71 2 89 -4 6 -4 14 0 16 10 6 9 209 0
224 -4 7 -3 14 1 17 10 6 10 46 -1 63 -4 6 -4 14 0 16 5 3 8 73 7 156 0 83 4
151 9 151 4 0 5 5 2 10 -4 6 -1 18 7 27 9 12 9 15 1 9 -9 -5 -11 -2 -7 8 3 9
10 16 16 16 5 0 7 4 4 9 -3 5 1 12 10 15 9 4 14 9 11 12 -7 7 68 77 78 74 4
-1 11 4 15 10 4 7 19 13 34 13 14 1 26 6 26 10 0 5 4 6 9 3 5 -4 12 0 14 6 4
10 6 10 6 0 1 -8 7 -10 19 -5 21 10 43 10 60 0 6 -5 17 -5 22 -2 6 3 10 1 10
-6 0 -7 3 -10 6 -6 9 8 84 -31 84 -43 0 -6 5 -10 11 -10 6 0 17 -7 25 -15 9
-8 12 -15 8 -15 -4 0 1 -7 12 -16 10 -8 13 -12 5 -8 -9 5 -12 3 -7 -4 4 -7 13
-12 19 -12 7 0 13 -8 14 -17 2 -26 7 -46 16 -60 4 -6 3 -15 -3 -18 -7 -4 -7
-11 -2 -18 11 -14 10 -202 -1 -213 -4 -4 -7 -12 -7 -18 0 -6 4 -5 9 2 4 8 8
-54 7 -141 -1 -86 -4 -159 -8 -163 -5 -4 -8 -12 -8 -18 0 -6 4 -5 9 2 4 8 8
-54 7 -141 -1 -86 -4 -159 -8 -163 -5 -4 -8 -12 -8 -18 0 -6 4 -5 9 2 4 8 8
-54 7 -141 -1 -86 -4 -159 -8 -163 -5 -4 -8 -12 -8 -18 0 -6 4 -5 9 2 4 8 8
-54 7 -141 -1 -86 -4 -159 -8 -163 -5 -4 -8 -12 -8 -18 0 -6 4 -5 9 2 4 8 8
-36 7 -100 -1 -62 -5 -119 -10 -127 -6 -9 -5 -12 1 -8 11 7 12 -137 1 -148 -3
-3 0 -18 7 -32 8 -15 12 -30 9 -34 -2 -4 10 -4 28 2 40 11 40 11 34 1 -3 -5 1
-9 9 -9 8 0 12 4 9 9 -6 10 25 6 44 -5 6 -5 12 -4 12 2 0 11 19 9 39 -3 10 -6
12 -5 7 2 -9 16 7 15 22 0 8 -8 12 -9 12 -1 0 6 8 10 18 8 9 -2 17 -4 17 -5 0
-1 8 -3 18 -5 9 -2 15 0 12 5 -2 4 6 8 20 8 14 0 22 -4 20 -9 -3 -4 9 -4 27 2
40 11 40 11 34 1 -3 -5 1 -9 9 -9 8 0 12 4 9 9 -6 10 25 6 44 -5 6 -5 12 -4
12 2 0 11 19 9 39 -3 10 -7 12 -5 6 4 -5 9 -2 10 12 6 19 -6 19 10 19 981 -1
544 -4 993 -8 999 -4 6 -4 14 -1 18 10 9 13 36 4 36 -4 0 -7 9 -8 20 -1 13 2
18 10 13 9 -5 8 -2 0 9 -7 8 -14 27 -15 42 -1 14 -7 26 -12 26 -5 0 -7 3 -3 6
3 4 0 22 -8 40 -8 19 -14 38 -15 42 -1 19 -12 42 -21 42 -5 0 -8 3 -8 8 3 15
-23 72 -34 72 -6 0 -8 3 -4 6 3 4 1 12 -6 20 -29 32 -37 44 -32 44 3 0 -8 13
-25 30 -16 16 -30 33 -30 37 0 4 -14 17 -30 28 -16 11 -30 26 -30 33 0 6 -6
11 -12 10 -7 -2 -12 3 -10 10 1 8 -2 11 -8 7 -5 -3 -21 4 -34 17 -13 13 -30
24 -37 26 -8 2 -16 8 -17 13 -2 5 -8 7 -13 3 -5 -3 -9 -1 -9 4 0 9 -37 25 -52
23 -5 -1 -8 4 -8 10 0 5 -4 8 -9 4 -5 -3 -15 1 -23 8 -7 8 -18 12 -25 10 -6
-2 -14 1 -18 6 -3 6 -17 11 -31 11 -13 0 -24 6 -24 13 0 8 -4 7 -10 -3 -8 -12
-10 -12 -10 -1 0 8 -3 11 -7 8 -3 -4 -13 -1 -21 6 -13 10 -14 9 -7 -3 7 -12 3
-11 -17 2 -16 10 -29 14 -33 8 -4 -6 -15 -6 -30 0 -18 7 -25 6 -25 -3 0 -7 -3
-8 -8 -2 -8 11 -47 13 -58 2 -4 -4 -13 -2 -20 4 -9 7 -19 7 -33 0 -26 -14 -34
-14 -25 1 5 7 3 8 -7 2 -8 -4 -18 -9 -24 -11 -56 -12 -72 -15 -82 -16 -7 0
-13 -4 -13 -8 0 -4 -9 -5 -20 -2 -11 3 -20 0 -20 -6 0 -6 -9 -11 -20 -11 -11
0 -20 -5 -20 -11 0 -5 -5 -7 -10 -4 -6 4 -17 1 -25 -5 -8 -6 -20 -8 -26 -4 -7
4 -9 3 -6 -3 6 -10 -13 -23 -29 -22 -4 0 -10 -4 -13 -9 -3 -6 -13 -12 -21 -14
-7 -2 -25 -14 -38 -28 -13 -14 -27 -25 -31 -25 -4 0 -15 -8 -25 -17 -16 -16
-18 -16 -45 12 -15 16 -31 27 -34 23 -4 -3 -9 2 -13 11 -3 9 -12 16 -18 16 -7
0 -22 9 -33 19 -12 11 -24 17 -27 14 -3 -4 -6 0 -6 7 0 7 -3 11 -6 7 -3 -3
-21 3 -40 14 -19 10 -43 19 -53 19 -11 0 -21 4 -23 10 -1 5 -19 10 -38 11 -19
2 -40 6 -46 11 -6 4 -27 9 -47 10 -20 2 -37 6 -37 10 0 4 -11 3 -25 -2 -14 -5
-25 -6 -25 -1 0 11 -33 10 -47 -2 -8 -6 -13 -6 -13 0 0 15 -64 10 -76 -6 -9
-11 -12 -12 -19 -1 -6 9 -4 11 5 5 9 -5 11 -4 6 3 -9 15 -13 15 -21 1z"/>
</g>
</svg>
